<?xml version="1.0" encoding="UTF-8" standalone="no"?>
<svg
   xmlns:dc="http://purl.org/dc/elements/1.1/"
   xmlns:cc="http://creativecommons.org/ns#"
   xmlns:rdf="http://www.w3.org/1999/02/22-rdf-syntax-ns#"
   xmlns:svg="http://www.w3.org/2000/svg"
   xmlns="http://www.w3.org/2000/svg"
   xmlns:sodipodi="http://sodipodi.sourceforge.net/DTD/sodipodi-0.dtd"
   xmlns:inkscape="http://www.inkscape.org/namespaces/inkscape"
   aria-hidden="true"
   focusable="false"
   data-prefix="fas"
   data-icon="times-circle"
   class="svg-inline--fa fa-times-circle fa-w-16"
   role="img"
   viewBox="0 0 512 512"
   version="1.1"
   id="svg4"
   sodipodi:docname="card.svg"
   inkscape:version="0.92.3 (2405546, 2018-03-11)">
  <metadata
     id="metadata10">
    <rdf:RDF>
      <cc:Work
         rdf:about="">
        <dc:format>image/svg+xml</dc:format>
        <dc:type
           rdf:resource="http://purl.org/dc/dcmitype/StillImage" />
        <dc:title></dc:title>
      </cc:Work>
    </rdf:RDF>
  </metadata>
  <defs
     id="defs8" />
  <sodipodi:namedview
     pagecolor="#ffffff"
     bordercolor="#666666"
     borderopacity="1"
     objecttolerance="10"
     gridtolerance="10"
     guidetolerance="10"
     inkscape:pageopacity="0"
     inkscape:pageshadow="2"
     inkscape:window-width="1299"
     inkscape:window-height="713"
     id="namedview6"
     showgrid="false"
     inkscape:zoom="0.4609375"
     inkscape:cx="256"
     inkscape:cy="256"
     inkscape:window-x="67"
     inkscape:window-y="27"
     inkscape:window-maximized="1"
     inkscape:current-layer="svg4" />
  <rect
     style="fill:#999999;fill-opacity:1;stroke:none;stroke-width:1.4868896;stroke-opacity:1"
     id="rect848"
     width="516"
     height="515.93121"
     x="0"
     y="-3.9651775" />
  <path
     inkscape:connector-curvature="0"
     style="fill:#ffffff;fill-opacity:1;stroke:#000000;stroke-width:1.07507563;stroke-opacity:1;image-rendering:auto"
     id="path972"
     d="m 257.99999,254.00003 c 81.24988,0 147.10021,-57.62755 147.10021,-128.7313 0,-71.103743 -65.85033,-128.7310554 -147.10021,-128.7310554 -81.24987,0 -147.10021,57.6273124 -147.10021,128.7310554 0,71.10375 65.85034,128.7313 147.10021,128.7313 z m 102.97015,32.18324 h -19.19198 c -25.51269,10.25859 -53.89843,16.09163 -83.77817,16.09163 -29.87973,0 -58.15055,-5.83304 -83.77816,-16.09163 h -19.19198 c -85.272168,0 -154.45524524,60.54319 -154.45524524,135.16655 v 41.83788 c 0,26.65218 24.70824324,48.2749 55.16258724,48.2749 H 460.2628 c 30.45434,0 55.16259,-21.62272 55.16259,-48.2749 v -41.83788 c 0,-74.62336 -69.18309,-135.16655 -154.45525,-135.16655 z" />
</svg>
