<?xml version="1.0" encoding="UTF-8" standalone="no"?>
<!-- Created with Inkscape (http://www.inkscape.org/) -->

<svg
   xmlns:dc="http://purl.org/dc/elements/1.1/"
   xmlns:cc="http://creativecommons.org/ns#"
   xmlns:rdf="http://www.w3.org/1999/02/22-rdf-syntax-ns#"
   xmlns:svg="http://www.w3.org/2000/svg"
   xmlns="http://www.w3.org/2000/svg"
   xmlns:sodipodi="http://sodipodi.sourceforge.net/DTD/sodipodi-0.dtd"
   xmlns:inkscape="http://www.inkscape.org/namespaces/inkscape"
   version="1.1"
   id="svg2"
   width="408"
   height="424"
   viewBox="0 0 408 424"
   sodipodi:docname="profile_user.svg"
   inkscape:version="0.92.3 (2405546, 2018-03-11)">
  <metadata
     id="metadata8">
    <rdf:RDF>
      <cc:Work
         rdf:about="">
        <dc:format>image/svg+xml</dc:format>
        <dc:type
           rdf:resource="http://purl.org/dc/dcmitype/StillImage" />
      </cc:Work>
    </rdf:RDF>
  </metadata>
  <defs
     id="defs6" />
  <sodipodi:namedview
     pagecolor="#ffffff"
     bordercolor="#666666"
     borderopacity="1"
     objecttolerance="10"
     gridtolerance="10"
     guidetolerance="10"
     inkscape:pageopacity="0"
     inkscape:pageshadow="2"
     inkscape:window-width="1299"
     inkscape:window-height="713"
     id="namedview4"
     showgrid="false"
     inkscape:lockguides="true"
     inkscape:zoom="1.5743132"
     inkscape:cx="268.88289"
     inkscape:cy="334.54677"
     inkscape:window-x="67"
     inkscape:window-y="27"
     inkscape:window-maximized="1"
     inkscape:current-layer="svg2" />
  <rect
     style="fill:#b3b3b3;fill-opacity:1;stroke-width:0.98095071"
     id="rect894"
     width="408"
     height="408"
     x="0"
     y="-0.43048415" />
  <path
     style="fill:#ffffff;fill-opacity:1;stroke-width:1.77034318"
     d="m -3.242e-5,380.97586 c 0,-31.9417 2.16442752,-40.8765 12.13108242,-50.07766 11.519206,-10.63389 18.813146,-13.46518 79.939603,-31.02616 19.719827,-5.66529 43.514827,-16.11147 53.674687,-23.5639 5.89883,-4.32673 5.90046,-4.33221 5.90046,-20.06528 0,-15.30821 -0.17575,-15.96796 -6.43948,-24.17368 -8.11503,-10.63062 -12.68487,-23.2127 -14.32871,-39.45055 -0.99234,-9.80193 -1.85827,-12.48867 -3.79497,-11.77401 -3.53442,1.30422 -7.3223,-5.13738 -9.59824,-16.32308 -1.06854,-5.2513 -3.16183,-13.81975 -4.65174,-19.04088 -3.15244,-11.0467 -3.42399,-15.68025 -0.91893,-15.68025 0.98451,0 2.8047,1.56272 4.04488,3.47224 1.24017,1.90944 2.71584,3.47222 3.27925,3.47222 2.01428,0 -0.31018,-32.3448 -3.1802,-44.253024 -4.08528,-16.94986 -3.98718,-35.967768 0.24637,-47.758123 4.78914,-13.3377 20.77807,-28.459915 39.45873,-37.3198729 24.57985,-11.657801 48.96062,-10.374314 79.82983,4.2025289 7.94336,3.750967 18.83888,8.24482 24.21229,9.986317 11.80586,3.826282 22.94702,13.679562 29.12992,25.762568 5.00406,9.779307 5.45853,21.823541 2.43918,64.642206 -1.48774,21.09824 -0.96909,27.1828 1.73865,20.39691 1.53882,-3.85588 4.76308,-3.15699 4.76308,1.03283 0,2.00018 -1.56168,8.83563 -3.47041,15.19053 -1.90871,6.35465 -4.54898,16.24132 -5.86725,21.96994 -1.87346,8.1421 -3.06648,10.30933 -5.46346,9.92692 -3.25486,-0.51961 -3.88291,1.64234 -5.97027,20.55199 -1.14957,10.41481 -6.72247,23.25081 -14.23591,32.79038 -4.31416,5.47754 -4.70917,7.37216 -4.70598,22.56891 l 0.004,16.58938 8.5717,5.57677 c 4.71446,3.06738 14.66464,8.21992 22.11154,11.45025 12.1509,5.27098 22.28316,8.4394 65.89372,20.60609 28.96038,8.07932 47.4171,20.34192 51.40661,34.15398 1.0064,3.48472 1.83437,19.03024 1.8399,34.54603 L 408,407.56952 H 203.99972 -3.242e-5 Z"
     id="path898"
     inkscape:connector-curvature="0" />
</svg>
